###############################
## Exported by quick3D 4.0
##
## For more information go to:
##   http://www.quick3D.com
##
## THIS FILE CONTAINS:
## 134 vertices
## 261 faces
## 134 normals
## 1 materials
## 0 textures
## 134 texture coordinates
###############################

mtllib shareware_output.mtl
# Vertex Section:
# 134 vertices
v -0.078842 0.016426 0.542228
v -0.067109 0.016985 0.557033
v -0.068330 0.017340 0.554281
v -0.075499 0.009925 0.540433
v -0.075391 0.013473 0.540672
v -0.069147 0.015259 0.551182
v -0.099717 0.014236 0.521431
v -0.112758 0.015909 0.500267
v -0.111384 0.013017 0.499373
v -0.097324 0.010427 0.519866
v -0.094942 0.011937 0.518691
v -0.077066 0.007842 0.540986
v -0.115653 0.016707 0.470899
v -0.115997 0.013943 0.473239
v -0.118773 0.013383 0.474450
v -0.128860 0.017322 0.476040
v -0.129476 0.018830 0.477965
v -0.128621 0.018883 0.478806
v -0.133370 0.020671 0.480073
v -0.132111 0.021136 0.479376
v -0.134028 0.017374 0.477130
v -0.131364 0.021015 0.488269
v -0.133181 0.021213 0.485528
v -0.136571 0.017792 0.485983
v -0.131749 0.019946 0.488814
v -0.137772 0.012276 0.480785
v -0.132522 0.012601 0.478773
v -0.134751 0.010239 0.483470
v -0.132824 0.013698 0.484870
v -0.135912 0.014215 0.485094
v -0.136590 0.011710 0.484191
v -0.127164 0.013599 0.481904
v -0.128329 0.016964 0.487003
v -0.061502 0.010016 0.554871
v -0.061726 0.008337 0.556983
v -0.062273 0.006032 0.557103
v -0.115712 0.015449 0.477864
v -0.115833 0.016321 0.480818
v -0.118497 0.014344 0.480407
v -0.118175 0.013935 0.478712
v -0.131807 0.021811 0.483496
v -0.129650 0.021492 0.482256
v -0.131199 0.015839 0.476083
v -0.131497 0.013674 0.476340
v -0.062569 0.013958 0.557881
v -0.067274 0.011241 0.561277
v -0.065614 0.009658 0.562999
v -0.062992 0.009220 0.561175
v -0.065858 0.005633 0.550257
v -0.070235 0.005327 0.551538
v -0.069967 0.011316 0.549850
v -0.061516 0.011289 0.557746
v -0.062150 0.009509 0.559627
v -0.116082 0.018589 0.481080
v -0.115467 0.018851 0.484291
v -0.120407 0.020280 0.486494
v -0.120982 0.019297 0.481193
v -0.124907 0.019977 0.483443
v -0.123915 0.020887 0.488456
v -0.126468 0.015291 0.471673
v -0.126622 0.017367 0.473309
v -0.124397 0.018101 0.471188
v -0.119328 0.019202 0.477209
v -0.123899 0.019141 0.475932
v -0.120263 0.019323 0.479899
v -0.115436 0.018390 0.477892
v -0.114313 0.017984 0.472077
v -0.093053 0.013731 0.518009
v -0.106800 0.016054 0.497293
v -0.106581 0.017641 0.497360
v -0.093184 0.016218 0.518054
v -0.073769 0.006252 0.552231
v -0.079898 0.007417 0.542288
v -0.063237 0.003748 0.556525
v -0.066878 0.003317 0.563261
v -0.065637 0.003232 0.560831
v -0.114839 0.017523 0.484040
v -0.067856 0.007045 0.549580
v -0.076253 0.008524 0.540582
v -0.119883 0.013609 0.487241
v -0.097128 0.019324 0.519633
v -0.081048 0.015716 0.543127
v -0.117285 0.020871 0.492476
v -0.123031 0.012775 0.470657
v -0.129560 0.021768 0.486023
v -0.127187 0.021085 0.490834
v -0.070695 0.004055 0.557874
v -0.068546 0.007860 0.561391
v -0.072926 0.008381 0.560198
v -0.064360 0.005750 0.561971
v -0.070194 0.016328 0.561037
v -0.066038 0.010651 0.559412
v -0.077141 0.009997 0.553524
v -0.067996 0.000985 0.554134
v -0.065080 0.001657 0.555312
v -0.071771 0.013195 0.560583
v -0.121538 0.013413 0.481236
v -0.124672 0.014101 0.483618
v -0.122365 0.016879 0.472315
v -0.121881 0.014853 0.471890
v -0.135554 0.020043 0.482083
v -0.136417 0.016114 0.479046
v -0.138456 0.017396 0.482397
v -0.082741 0.011752 0.543981
v -0.098886 0.018373 0.520610
v -0.111246 0.020814 0.499242
v -0.114475 0.019843 0.501047
v -0.070638 0.004430 0.550459
v -0.120482 0.013846 0.472218
v -0.126278 0.012688 0.472552
v -0.072296 0.015382 0.557415
v -0.137304 0.015229 0.479499
v -0.137580 0.014008 0.482023
v -0.129192 0.015249 0.475213
v -0.133455 0.014328 0.477871
v -0.130020 0.011174 0.477314
v -0.067143 0.018255 0.558175
v -0.063554 0.006298 0.551644
v -0.062240 0.011644 0.552902
v -0.128476 0.011147 0.479854
v -0.138059 0.016785 0.484272
v -0.123538 0.010829 0.476619
v -0.125026 0.010706 0.473700
v -0.115854 0.017976 0.470796
v -0.108491 0.014278 0.497958
v -0.117658 0.014679 0.485664
v -0.134920 0.016720 0.478543
v -0.122438 0.014342 0.479281
v -0.069325 0.003262 0.553078
v -0.116012 0.017383 0.470413
v -0.066630 0.014359 0.550250
v -0.127024 0.020056 0.491450
v -0.125122 0.017565 0.489822
v -0.066688 0.017829 0.554502
# 134 texture coordinates
vt 0.793659 0.799970
vt 0.781918 0.798732
vt 0.781962 0.793744
vt 0.190863 0.794578
vt 0.793033 0.794784
vt 0.782756 0.789740
vt 0.172352 0.806461
vt 0.156916 0.804085
vt 0.157126 0.801546
vt 0.172643 0.802279
vt 0.172819 0.798820
vt 0.190699 0.796676
vt 0.141036 0.783845
vt 0.142205 0.785716
vt 0.141777 0.789654
vt 0.845164 0.802557
vt 0.844370 0.804982
vt 0.843634 0.804721
vt 0.844677 0.811202
vt 0.844543 0.809325
vt 0.137332 0.809116
vt 0.839950 0.815593
vt 0.841993 0.815429
vt 0.140985 0.819045
vt 0.144099 0.816309
vt 0.137680 0.815447
vt 0.138659 0.808114
vt 0.140377 0.813991
vt 0.141902 0.813472
vt 0.140783 0.817115
vt 0.140026 0.816793
vt 0.142525 0.804874
vt 0.144587 0.810705
vt 0.207337 0.793401
vt 0.207325 0.796301
vt 0.207042 0.796516
vt 0.144600 0.789322
vt 0.145994 0.791938
vt 0.144945 0.794273
vt 0.144230 0.792505
vt 0.842513 0.812377
vt 0.842358 0.808971
vt 0.846062 0.804957
vt 0.137746 0.805191
vt 0.777132 0.797605
vt 0.778777 0.806185
vt 0.205693 0.805659
vt 0.206702 0.802134
vt 0.204550 0.787565
vt 0.201993 0.789970
vt 0.201005 0.788046
vt 0.207424 0.797321
vt 0.207151 0.799944
vt 0.145906 0.792715
vt 0.836123 0.794638
vt 0.836868 0.802019
vt 0.839688 0.798289
vt 0.840003 0.804495
vt 0.837174 0.807525
vt 0.137306 0.796156
vt 0.845702 0.797921
vt 0.845912 0.793881
vt 0.841095 0.793274
vt 0.843344 0.797269
vt 0.840083 0.796468
vt 0.144543 0.789431
vt 0.142041 0.783492
vt 0.173050 0.796321
vt 0.157548 0.795154
vt 0.157569 0.795134
vt 0.810969 0.796688
vt 0.197638 0.801909
vt 0.190363 0.800836
vt 0.206469 0.795820
vt 0.204827 0.805231
vt 0.205191 0.801945
vt 0.147904 0.793578
vt 0.198379 0.793266
vt 0.190748 0.795480
vt 0.147931 0.801196
vt 0.811769 0.802551
vt 0.793957 0.803108
vt 0.832770 0.803418
vt 0.138000 0.791218
vt 0.840477 0.811917
vt 0.146688 0.813052
vt 0.201612 0.802904
vt 0.203061 0.809462
vt 0.200454 0.808631
vt 0.205965 0.803348
vt 0.781394 0.805166
vt 0.202668 0.809956
vt 0.196862 0.806819
vt 0.201168 0.795896
vt 0.205340 0.794389
vt 0.783102 0.808148
vt 0.144324 0.798150
vt 0.144359 0.803594
vt 0.844651 0.792379
vt 0.139115 0.791227
vt 0.844503 0.815122
vt 0.846492 0.813100
vt 0.138333 0.818197
vt 0.189945 0.805508
vt 0.811853 0.805204
vt 0.827191 0.802129
vt 0.156466 0.807027
vt 0.197974 0.796957
vt 0.139853 0.789813
vt 0.137748 0.796289
vt 0.783613 0.804724
vt 0.137223 0.814314
vt 0.138424 0.816465
vt 0.845781 0.801974
vt 0.137806 0.808657
vt 0.138862 0.803999
vt 0.780084 0.798336
vt 0.206008 0.789198
vt 0.206759 0.790788
vt 0.140891 0.804328
vt 0.139450 0.819175
vt 0.141086 0.796271
vt 0.138871 0.795556
vt 0.843007 0.784160
vt 0.157379 0.797361
vt 0.147874 0.797621
vt 0.137683 0.811135
vt 0.142939 0.797688
vt 0.201704 0.792904
vt 0.140624 0.783946
vt 0.780000 0.787544
vt 0.147116 0.813233
vt 0.147123 0.809520
vt 0.779943 0.793309
# 134 normals
vn 0.147336 0.982602 -0.113074
vn -0.489669 0.871869 0.008284
vn -0.097186 0.982509 -0.158845
vn 0.789768 -0.230318 -0.568524
vn 0.699138 0.529172 -0.480816
vn 0.420867 0.577183 -0.699808
vn -0.784105 -0.338740 0.520033
vn -0.661464 -0.460465 0.591978
vn -0.279894 -0.955288 0.095313
vn -0.153064 -0.987730 -0.030989
vn 0.448252 -0.770349 -0.453467
vn 0.137718 -0.939359 -0.314069
vn 0.332528 -0.538161 -0.774472
vn 0.574745 -0.794173 -0.197378
vn 0.182026 -0.943350 -0.277412
vn -0.407775 0.743340 -0.530251
vn 0.059307 0.727688 -0.683340
vn 0.026203 0.835040 -0.549565
vn -0.598783 0.714471 -0.361925
vn -0.091659 0.817526 -0.568550
vn -0.613893 0.184315 -0.767570
vn -0.401891 0.775772 0.486479
vn -0.533041 0.818485 0.214359
vn -0.517860 0.061908 0.853223
vn -0.480858 -0.102101 0.870834
vn -0.740294 -0.545654 -0.392717
vn -0.347035 -0.822122 -0.451312
vn -0.110548 -0.974785 0.193838
vn 0.153079 -0.507584 0.847895
vn -0.506707 -0.295129 0.810029
vn -0.602673 -0.400986 0.689925
vn 0.143325 -0.904625 0.401387
vn -0.173758 -0.732844 0.657836
vn 0.966976 -0.136932 -0.214959
vn 0.980810 -0.164541 0.104588
vn 0.943366 -0.330873 0.024175
vn 0.875643 -0.441424 0.195945
vn 0.972098 -0.227944 -0.055378
vn 0.517820 -0.841513 0.154008
vn 0.270618 -0.955462 0.117723
vn -0.205245 0.978454 -0.022424
vn 0.187446 0.936054 -0.297769
vn -0.207548 0.327355 -0.921826
vn -0.602682 -0.195681 -0.773617
vn 0.701499 0.535161 0.470639
vn -0.696279 0.456090 0.554237
vn 0.074458 0.266677 0.960906
vn 0.797636 0.018413 0.602858
vn 0.034270 -0.623569 -0.781017
vn 0.914809 -0.158944 -0.371298
vn 0.691523 0.062493 -0.719646
vn 0.980729 0.155685 0.118038
vn 0.917646 -0.020987 0.396844
vn 0.739861 0.672751 -0.003569
vn 0.592732 0.754849 -0.280842
vn 0.195091 0.960387 -0.198989
vn 0.102207 0.991302 -0.082913
vn 0.188716 0.972022 -0.139853
vn 0.085544 0.995027 -0.051030
vn -0.625590 0.148809 -0.765828
vn -0.626494 0.629533 -0.459559
vn -0.064094 0.648388 -0.758607
vn 0.110077 0.991437 -0.070259
vn -0.074469 0.961566 -0.264283
vn 0.096356 0.995295 0.010201
vn 0.674682 0.731507 0.098501
vn 0.896625 0.258516 -0.359490
vn 0.732981 -0.384449 -0.561193
vn 0.743653 -0.421444 -0.519003
vn 0.712815 0.544338 -0.442257
vn 0.762953 0.383381 -0.520502
vn -0.579964 -0.811991 0.065665
vn -0.440178 -0.873676 0.207203
vn 0.850519 -0.503189 0.153031
vn 0.480030 -0.484487 0.731330
vn -0.020277 -0.898153 0.439216
vn 0.838936 -0.383506 -0.386148
vn 0.996830 -0.062745 -0.048914
vn 0.632406 -0.504710 -0.587649
vn -0.127957 -0.982679 0.134051
vn 0.199202 0.978969 -0.044031
vn -0.440002 0.820771 0.364327
vn 0.021455 0.999677 -0.013643
vn 0.210838 -0.102297 -0.972154
vn 0.078885 0.996745 0.016613
vn -0.314325 0.750945 0.580759
vn -0.590853 -0.672925 0.445044
vn -0.642336 -0.038608 0.765450
vn -0.469856 -0.114494 0.875287
vn 0.585976 -0.256989 0.768497
vn -0.353251 0.406475 0.842610
vn -0.632185 0.057021 0.772717
vn -0.879672 -0.202927 0.430114
vn -0.085832 -0.974080 -0.209287
vn 0.510598 -0.771460 -0.379657
vn -0.545860 0.155110 0.823394
vn 0.100542 -0.994478 -0.030091
vn -0.202238 -0.911387 0.358432
vn 0.147434 0.541540 -0.827646
vn 0.129086 0.084765 -0.988004
vn -0.601444 0.770138 -0.212492
vn -0.540617 0.361529 -0.759625
vn -0.930402 0.294488 -0.218239
vn -0.837239 -0.075676 0.541575
vn -0.546395 0.682627 0.485255
vn 0.087810 0.995703 -0.029410
vn -0.522437 0.701526 0.484687
vn 0.268370 -0.811902 -0.518452
vn 0.323067 -0.715198 -0.619774
vn -0.371299 -0.645369 -0.667559
vn -0.707170 0.670184 0.225307
vn -0.717628 -0.045342 -0.694949
vn -0.968850 -0.155815 0.192487
vn -0.616500 0.391065 -0.683371
vn -0.557222 -0.387498 -0.734404
vn -0.501605 -0.785000 -0.363549
vn -0.208774 0.977943 -0.006453
vn 0.831044 -0.429374 -0.353558
vn 0.914064 0.225824 -0.336882
vn 0.142516 -0.926937 0.347099
vn -0.881291 0.215809 0.420420
vn 0.398574 -0.904574 0.151278
vn -0.007944 -0.927203 -0.374476
vn 0.046670 0.832977 -0.551336
vn 0.438299 -0.823407 -0.360410
vn 0.447084 -0.880075 -0.159951
vn -0.623956 0.188933 -0.758276
vn 0.220692 -0.947607 0.230948
vn 0.557396 -0.396632 -0.729378
vn 0.170171 -0.164810 -0.971535
vn 0.179599 0.637888 -0.748895
vn -0.522503 -0.163397 0.836835
vn -0.400165 -0.784033 0.474510
vn 0.135501 0.926118 -0.352058
# Faces Section:
# f vertex_index/tex_coord_index/normal_index ...
usemtl bone
f 1/0/1 2/1/2 3/2/3 
f 4/3/4 5/4/5 6/5/6 
f 11/10/11 12/11/12 10/9/10 
f 13/12/13 14/13/14 15/14/15 
f 16/15/16 17/16/17 18/17/18 
f 19/18/19 20/19/20 21/20/21 
f 26/25/26 27/26/27 28/27/28 
f 32/31/32 33/32/33 29/28/29 
f 34/33/34 35/34/35 36/35/36 
f 41/40/41 42/41/42 20/19/20 
f 43/42/43 44/43/44 21/20/21 
f 49/48/49 50/49/50 51/50/51 
f 52/51/52 53/52/53 35/34/35 
f 54/53/54 55/54/55 38/37/38 
f 60/59/60 61/60/61 62/61/62 
f 63/62/63 64/63/64 65/64/65 
f 66/65/66 67/66/67 63/62/63 
f 72/71/72 73/72/73 12/11/12 
f 74/73/74 75/74/75 76/75/76 
f 69/68/69 77/76/77 70/69/70 
f 78/77/78 79/78/79 51/50/51 
f 8/7/8 80/79/80 9/8/9 
f 81/80/81 82/81/82 1/0/1 
f 83/82/83 56/55/56 59/58/59 
f 58/57/58 64/63/64 42/41/42 
f 84/83/84 60/59/60 62/61/62 
f 85/84/85 86/85/86 59/58/59 
f 30/29/30 29/28/29 24/23/24 
f 87/86/87 88/87/88 89/88/89 
f 90/89/90 74/73/74 36/35/36 
f 91/90/91 92/91/92 46/45/46 
f 54/53/54 57/56/57 55/54/55 
f 94/93/94 95/94/95 76/75/76 
f 91/90/91 96/95/96 92/91/92 
f 75/74/75 88/87/88 76/75/76 
f 97/96/97 98/97/98 32/31/32 
f 101/100/101 102/101/102 103/102/103 
f 65/64/65 64/63/64 57/56/57 
f 13/12/13 67/66/67 14/13/14 
f 104/103/104 105/104/105 7/6/7 
f 106/105/106 107/106/107 105/104/105 
f 109/108/109 110/109/110 84/83/84 
f 82/81/82 111/110/111 2/1/2 
f 106/105/106 105/104/105 81/80/81 
f 79/78/79 11/10/11 4/3/4 
f 112/111/112 113/112/113 103/102/103 
f 57/56/57 64/63/64 58/57/58 
f 114/113/114 43/42/43 17/16/17 
f 61/60/61 64/63/64 62/61/62 
f 66/65/66 54/53/54 37/36/37 
f 29/28/29 33/32/33 24/23/24 
f 47/46/47 90/89/90 48/47/48 
f 65/64/65 57/56/57 54/53/54 
f 118/117/118 119/118/119 36/35/36 
f 120/119/120 32/31/32 29/28/29 
f 113/112/113 121/120/121 103/102/103 
f 121/120/121 101/100/101 103/102/103 
f 42/41/42 64/63/64 18/17/18 
f 124/123/124 99/98/99 64/63/64 
f 105/104/105 107/106/107 7/6/7 
f 51/50/51 79/78/79 4/3/4 
f 56/55/56 70/69/70 55/54/55 
f 100/99/100 109/108/109 84/83/84 
f 64/63/64 99/98/99 62/61/62 
f 43/42/43 114/113/114 44/43/44 
f 128/127/128 122/121/122 15/14/15 
f 55/54/55 77/76/77 38/37/38 
f 34/33/34 52/51/52 35/34/35 
f 44/43/44 115/114/115 21/20/21 
f 19/18/19 41/40/41 20/19/20 
f 119/118/119 34/33/34 36/35/36 
f 98/97/98 33/32/33 32/31/32 
f 96/95/96 93/92/93 89/88/89 
f 27/26/27 120/119/120 28/27/28 
f 97/96/97 128/127/128 40/39/40 
f 127/126/127 19/18/19 21/20/21 
f 130/129/130 67/66/67 13/12/13 
f 124/123/124 130/129/130 99/98/99 
f 115/114/115 127/126/127 21/20/21 
f 72/71/72 104/103/104 73/72/73 
f 1/0/1 82/81/82 2/1/2 
f 51/50/51 4/3/4 6/5/6 
f 50/49/50 78/77/78 51/50/51 
f 12/11/12 73/72/73 10/9/10 
f 26/25/26 115/114/115 27/26/27 
f 64/63/64 16/15/16 18/17/18 
f 16/15/16 114/113/114 17/16/17 
f 114/113/114 60/59/60 44/43/44 
f 57/56/57 56/55/56 55/54/55 
f 108/107/108 94/93/94 72/71/72 
f 131/130/131 51/50/51 6/5/6 
f 88/87/88 92/91/92 89/88/89 
f 77/76/77 126/125/126 39/38/39 
f 118/117/118 95/94/95 49/48/49 
f 87/86/87 94/93/94 76/75/76 
f 121/120/121 30/29/30 24/23/24 
f 30/29/30 113/112/113 31/30/31 
f 58/57/58 85/84/85 59/58/59 
f 130/129/130 13/12/13 15/14/15 
f 108/107/108 72/71/72 12/11/12 
f 86/85/86 132/131/132 8/7/8 
f 70/69/70 77/76/77 55/54/55 
f 106/105/106 70/69/70 56/55/56 
f 133/132/133 80/79/80 8/7/8 
f 81/80/81 105/104/105 82/81/82 
f 113/112/113 112/111/112 26/25/26 
f 101/100/101 127/126/127 102/101/102 
f 86/85/86 85/84/85 22/21/22 
f 98/97/98 97/96/97 80/79/80 
f 88/87/88 87/86/87 76/75/76 
f 48/47/48 90/89/90 36/35/36 
f 53/52/53 48/47/48 36/35/36 
f 117/116/117 134/133/134 2/1/2 
f 134/133/134 117/116/117 45/44/45 
f 14/13/14 40/39/40 15/14/15 
f 128/127/128 97/96/97 32/31/32 
f 31/30/31 26/25/26 28/27/28 
f 84/83/84 110/109/110 60/59/60 
f 41/40/41 85/84/85 42/41/42 
f 130/129/130 109/108/109 100/99/100 
f 105/104/105 104/103/104 82/81/82 
f 129/128/129 95/94/95 94/93/94 
f 74/73/74 90/89/90 75/74/75 
f 132/131/132 133/132/133 8/7/8 
f 11/10/11 68/67/68 4/3/4 
f 102/101/102 112/111/112 103/102/103 
f 85/84/85 58/57/58 42/41/42 
f 37/36/37 54/53/54 38/37/38 
f 24/23/24 33/32/33 25/24/25 
f 37/36/37 40/39/40 14/13/14 
f 119/118/119 134/133/134 45/44/45 
f 2/1/2 134/133/134 3/2/3 
f 35/34/35 53/52/53 36/35/36 
f 131/130/131 134/133/134 119/118/119 
f 120/119/120 29/28/29 28/27/28 
f 121/120/121 113/112/113 30/29/30 
f 127/126/127 101/100/101 19/18/19 
f 64/63/64 61/60/61 16/15/16 
f 7/6/7 107/106/107 8/7/8 
f 83/82/83 106/105/106 56/55/56 
f 109/108/109 123/122/123 110/109/110 
f 107/106/107 86/85/86 8/7/8 
f 96/95/96 111/110/111 93/92/93 
f 11/10/11 79/78/79 12/11/12 
f 109/108/109 130/129/130 15/14/15 
f 40/39/40 128/127/128 15/14/15 
f 31/30/31 113/112/113 26/25/26 
f 95/94/95 118/117/118 74/73/74 
f 38/37/38 77/76/77 39/38/39 
f 92/91/92 96/95/96 89/88/89 
f 129/128/129 78/77/78 50/49/50 
f 111/110/111 96/95/96 91/90/91 
f 74/73/74 118/117/118 36/35/36 
f 94/93/94 87/86/87 72/71/72 
f 116/115/116 120/119/120 27/26/27 
f 39/38/39 97/96/97 40/39/40 
f 60/59/60 110/109/110 44/43/44 
f 130/129/130 124/123/124 67/66/67 
f 99/98/99 130/129/130 100/99/100 
f 112/111/112 115/114/115 26/25/26 
f 93/92/93 104/103/104 72/71/72 
f 86/85/86 107/106/107 59/58/59 
f 95/94/95 74/73/74 76/75/76 
f 7/6/7 8/7/8 9/8/9 
f 9/8/9 10/9/10 7/6/7 
f 22/21/22 23/22/23 24/23/24 
f 24/23/24 25/24/25 22/21/22 
f 29/28/29 30/29/30 31/30/31 
f 31/30/31 28/27/28 29/28/29 
f 37/36/37 38/37/38 39/38/39 
f 39/38/39 40/39/40 37/36/37 
f 45/44/45 46/45/46 47/46/47 
f 47/46/47 48/47/48 45/44/45 
f 56/55/56 57/56/57 58/57/58 
f 58/57/58 59/58/59 56/55/56 
f 68/67/68 69/68/69 70/69/70 
f 70/69/70 71/70/71 68/67/68 
f 87/86/87 89/88/89 93/92/93 
f 93/92/93 72/71/72 87/86/87 
f 99/98/99 100/99/100 84/83/84 
f 84/83/84 62/61/62 99/98/99 
f 79/78/79 78/77/78 108/107/108 
f 108/107/108 12/11/12 79/78/79 
f 88/87/88 75/74/75 90/89/90 
f 90/89/90 47/46/47 88/87/88 
f 53/52/53 52/51/52 45/44/45 
f 45/44/45 48/47/48 53/52/53 
f 115/114/115 44/43/44 116/115/116 
f 116/115/116 27/26/27 115/114/115 
f 111/110/111 91/90/91 117/116/117 
f 117/116/117 2/1/2 111/110/111 
f 122/121/122 123/122/123 109/108/109 
f 109/108/109 15/14/15 122/121/122 
f 4/3/4 68/67/68 71/70/71 
f 71/70/71 5/4/5 4/3/4 
f 6/5/6 5/4/5 1/0/1 
f 1/0/1 3/2/3 6/5/6 
f 125/124/125 126/125/126 77/76/77 
f 77/76/77 69/68/69 125/124/125 
f 127/126/127 115/114/115 112/111/112 
f 112/111/112 102/101/102 127/126/127 
f 46/45/46 92/91/92 88/87/88 
f 88/87/88 47/46/47 46/45/46 
f 101/100/101 23/22/23 41/40/41 
f 41/40/41 19/18/19 101/100/101 
f 49/48/49 95/94/95 129/128/129 
f 129/128/129 50/49/50 49/48/49 
f 70/69/70 106/105/106 81/80/81 
f 81/80/81 71/70/71 70/69/70 
f 107/106/107 106/105/106 83/82/83 
f 83/82/83 59/58/59 107/106/107 
f 126/125/126 80/79/80 97/96/97 
f 97/96/97 39/38/39 126/125/126 
f 45/44/45 117/116/117 91/90/91 
f 91/90/91 46/45/46 45/44/45 
f 132/131/132 86/85/86 22/21/22 
f 22/21/22 25/24/25 132/131/132 
f 119/118/119 45/44/45 52/51/52 
f 52/51/52 34/33/34 119/118/119 
f 110/109/110 123/122/123 116/115/116 
f 116/115/116 44/43/44 110/109/110 
f 125/124/125 69/68/69 68/67/68 
f 68/67/68 11/10/11 125/124/125 
f 23/22/23 101/100/101 121/120/121 
f 121/120/121 24/23/24 23/22/23 
f 134/133/134 131/130/131 6/5/6 
f 6/5/6 3/2/3 134/133/134 
f 66/65/66 63/62/63 65/64/65 
f 65/64/65 54/53/54 66/65/66 
f 61/60/61 60/59/60 114/113/114 
f 114/113/114 16/15/16 61/60/61 
f 9/8/9 125/124/125 11/10/11 
f 11/10/11 10/9/10 9/8/9 
f 80/79/80 126/125/126 125/124/125 
f 125/124/125 9/8/9 80/79/80 
f 63/62/63 67/66/67 124/123/124 
f 124/123/124 64/63/64 63/62/63 
f 123/122/123 122/121/122 120/119/120 
f 120/119/120 116/115/116 123/122/123 
f 17/16/17 20/19/20 42/41/42 
f 42/41/42 18/17/18 17/16/17 
f 22/21/22 85/84/85 41/40/41 
f 41/40/41 23/22/23 22/21/22 
f 67/66/67 66/65/66 37/36/37 
f 37/36/37 14/13/14 67/66/67 
f 120/119/120 122/121/122 128/127/128 
f 128/127/128 32/31/32 120/119/120 
f 73/72/73 104/103/104 7/6/7 
f 7/6/7 10/9/10 73/72/73 
f 104/103/104 93/92/93 111/110/111 
f 111/110/111 82/81/82 104/103/104 
f 43/42/43 21/20/21 20/19/20 
f 20/19/20 17/16/17 43/42/43 
f 33/32/33 133/132/133 132/131/132 
f 132/131/132 25/24/25 33/32/33 
f 98/97/98 80/79/80 133/132/133 
f 133/132/133 33/32/33 98/97/98 
f 129/128/129 94/93/94 108/107/108 
f 108/107/108 78/77/78 129/128/129 
f 5/4/5 71/70/71 81/80/81 
f 81/80/81 1/0/1 5/4/5 
